<svg width="132" height="32" viewBox="0 0 132 32" fill="none" xmlns="http://www.w3.org/2000/svg">
<g clip-path="url(#clip0)">
<path d="M77.3491 8.67931C75.6528 8.69082 73.9979 9.19934 72.593 10.1408C71.188 11.0822 70.0959 12.4144 69.4543 13.9694C68.8126 15.5245 68.6502 17.2329 68.9874 18.8793C69.3246 20.5256 70.1463 22.0363 71.3491 23.2209C72.5519 24.4055 74.0818 25.2111 75.7461 25.536C77.4104 25.8609 79.1346 25.6907 80.7014 25.0468C82.2681 24.4029 83.6074 23.3141 84.5503 21.9177C85.4933 20.5212 85.9977 18.8796 86.0001 17.1998C85.9996 16.077 85.7751 14.9655 85.3396 13.9289C84.9041 12.8924 84.2661 11.9512 83.4623 11.1595C82.6584 10.3678 81.7046 9.74112 80.6555 9.3155C79.6064 8.88988 78.4828 8.67367 77.3491 8.67931ZM77.3491 25.0902C75.2659 25.0902 73.5577 21.5203 73.5577 17.1978C73.5577 12.8306 75.2659 9.3093 77.3491 9.3093C79.4323 9.3093 81.1523 12.8306 81.1523 17.1978C81.1523 21.5203 79.4559 25.0902 77.3491 25.0902Z" fill="black"/>
<path d="M50.7637 8.67933C49.0674 8.69123 47.4127 9.20006 46.0081 10.1417C44.6034 11.0834 43.5116 12.4157 42.8702 13.9708C42.2289 15.5259 42.0667 17.2342 42.4041 18.8805C42.7415 20.5267 43.5635 22.0372 44.7663 23.2216C45.9691 24.406 47.4991 25.2114 49.1633 25.5361C50.8276 25.8609 52.5517 25.6906 54.1183 25.0466C55.685 24.4027 57.0241 23.3139 57.967 21.9175C58.9098 20.5211 59.4142 18.8796 59.4166 17.1998C59.4164 16.0768 59.192 14.965 58.7565 13.9282C58.3209 12.8914 57.6828 11.95 56.8787 11.1582C56.0746 10.3665 55.1204 9.73985 54.071 9.31443C53.0215 8.88902 51.8976 8.67318 50.7637 8.67933ZM50.7637 25.0902C48.6804 25.0902 46.9722 21.5203 46.9722 17.1978C46.9722 12.8307 48.6804 9.30932 50.7637 9.30932C52.8469 9.30932 54.5747 12.8307 54.5747 17.1978C54.5747 21.5203 52.8783 25.0902 50.7715 25.0902" fill="black"/>
<path d="M34.7924 21.8138C31.4741 21.8138 29.169 19.325 29.0826 16.0078C28.9904 12.4359 30.4571 9.35592 32.5344 9.35592C33.8146 9.35592 34.8022 11.1545 35.0614 12.5895C35.2577 13.6453 35.0614 13.8864 34.1189 14.0945C33.1765 14.3025 28.2462 15.2047 28.2462 15.2047L28.8765 15.6092C28.8765 15.6092 39.1591 13.9331 39.9288 13.7484C39.1277 10.7578 36.2139 8.67926 32.7563 8.67926C31.575 8.675 30.4054 8.91169 29.3205 9.37459C28.2356 9.83749 27.2586 10.5167 26.4503 11.3698C25.6421 12.223 25.0199 13.2318 24.6225 14.3335C24.2251 15.4352 24.0611 16.6061 24.1406 17.7733C24.4332 22.2591 28.2914 25.7357 32.8309 25.6949C37.072 25.6579 40.1978 22.6305 40.6317 18.66L40.2901 18.5102C39.8974 19.8461 37.9928 21.8158 34.7924 21.8158" fill="black"/>
<path d="M125.651 21.8138C122.333 21.8138 120.028 19.3249 119.941 16.0077C119.849 12.4358 121.316 9.35588 123.393 9.35588C124.673 9.35588 125.661 11.1545 125.92 12.5895C126.117 13.6453 125.92 13.8864 124.978 14.0944C124.035 14.3025 119.105 15.2047 119.105 15.2047L119.735 15.6091C119.735 15.6091 130.016 13.933 130.788 13.7483C129.987 10.7578 127.073 8.67922 123.613 8.67922C122.433 8.67657 121.265 8.91445 120.181 9.37806C119.098 9.84166 118.122 10.5211 117.315 11.3741C116.508 12.227 115.887 13.2353 115.49 14.3362C115.093 15.4371 114.93 16.6071 115.009 17.7733C115.302 22.2591 119.16 25.7357 123.7 25.6948C127.941 25.6579 131.066 22.6304 131.5 18.6599L131.159 18.5102C130.766 19.846 128.861 21.8157 125.661 21.8157" fill="black"/>
<path d="M93.6058 21.0108C91.5952 21.0108 90.2541 21.0341 90.2541 20.5461C90.2541 19.9258 91.4126 19.8558 94.9134 19.8558C99.1741 19.8558 102.339 17.4642 102.339 14.0964C102.339 12.1014 100.556 10.2892 98.9778 9.39482C99.0617 9.36725 99.1488 9.35026 99.237 9.34426C100.301 9.73017 101.277 10.3195 102.111 11.0787C103.427 12.3445 103.879 13.6978 104.226 14.6C104.342 14.6098 104.459 14.6098 104.576 14.6C104.576 14.6 104.332 10.9173 104.285 9.93342C101.475 9.13755 98.5687 8.72093 95.6458 8.69482C90.5781 8.69482 87.5092 11.2517 87.5092 14.1042C87.5092 16.9567 89.561 18.938 92.679 19.4416C90.4544 19.5038 87.5976 20.1708 88.0178 22.8716C88.2652 24.4582 90.1913 25.4674 92.9068 25.4674H96.1995C98.6538 25.4674 99.9733 26.6632 99.9733 28.2265C99.9733 30.2468 98.1885 31.2209 96.1543 31.2209C91.393 31.2209 87.9412 25.4499 87.6958 24.6566L87.4032 24.7032L86.8691 30.062C86.8691 30.062 90.0755 31.8762 95.0607 31.8762C99.7023 31.8762 103.67 29.8384 103.67 26.1752C103.67 22.6344 100.268 21.0186 97.0183 21.0186L93.6058 21.0108ZM92.0762 14.2753C92.0762 10.6704 93.5096 9.30926 94.9213 9.30926C96.333 9.30926 97.7742 10.6704 97.7742 14.2753C97.7742 17.8433 96.3487 19.1266 94.9213 19.1266C93.4938 19.1266 92.0762 17.8433 92.0762 14.2753Z" fill="black"/>
<path d="M12.832 3.1868C17.9664 3.1868 21.803 10.8323 22.3489 12.0203H22.7121L22.1034 3.99762C22.1034 3.99762 17.0181 2.48486 12.885 2.48486C5.86761 2.48486 0.499512 7.0562 0.499512 14.0931C0.499512 20.2549 4.45391 25.6954 11.6696 25.6954C18.9619 25.6954 21.7324 24.1982 21.7324 24.1982V12.1311L13.4053 14.06V14.5675L14.3498 14.4469C16.0285 14.2525 16.6293 15.283 16.7059 16.9747C16.7255 17.4608 16.7393 17.9022 16.7393 18.2074V24.1126C16.7395 24.1823 16.7258 24.2514 16.699 24.3158C16.6721 24.3802 16.6326 24.4387 16.5827 24.4879C16.5329 24.5371 16.4737 24.576 16.4085 24.6024C16.3434 24.6287 16.2736 24.642 16.2033 24.6415C14.4067 24.6279 6.92002 22.4871 5.76943 15.0011C4.95853 9.72199 7.29111 3.1868 12.8379 3.1868" fill="black"/>
<path d="M107.301 2.84027C107.3 2.32025 107.456 1.8118 107.747 1.37923C108.039 0.946663 108.453 0.609414 108.938 0.410144C109.423 0.210874 109.957 0.158534 110.472 0.259749C110.987 0.360964 111.46 0.611185 111.832 0.978759C112.203 1.34633 112.456 1.81475 112.559 2.32475C112.661 2.83475 112.609 3.36343 112.408 3.8439C112.207 4.32437 111.867 4.73506 111.43 5.024C110.994 5.31295 110.48 5.46718 109.955 5.46718C109.607 5.46744 109.262 5.39968 108.94 5.26778C108.618 5.13588 108.325 4.94242 108.078 4.69846C107.832 4.45451 107.636 4.16483 107.503 3.84599C107.369 3.52716 107.301 3.18541 107.301 2.84027Z" fill="black"/>
<path d="M105.911 25.4402H114.354V25.0299C114.222 25.0134 114.09 24.9901 113.961 24.9599C113.009 24.7402 112.632 23.9313 112.632 22.7744V7.94238L105.956 9.47653V9.96263C106.06 9.92843 106.168 9.90944 106.278 9.90625C107.827 9.90625 107.629 12.8229 107.629 15.199V22.7822C107.629 23.9391 107.252 24.748 106.299 24.9677C106.17 24.9978 106.039 25.0212 105.907 25.0377V25.448" fill="black"/>
<path d="M67.9371 24.9596C66.9848 24.7399 66.6157 23.931 66.6157 22.7741V0.131348L59.4824 1.77049V2.19827C59.6689 2.16468 59.857 2.14067 60.0459 2.12632C61.7816 2.09327 61.6167 3.9988 61.6167 6.40405V22.7683C61.6167 23.9252 61.224 24.7341 60.2816 24.9538C60.152 24.9839 60.0209 25.0073 59.8889 25.0238V25.4341H68.3435V25.0238C68.2115 25.0073 68.0804 24.9839 67.9508 24.9538" fill="black"/>
</g>
<defs>
<clipPath id="clip0">
<rect width="131" height="32" fill="white" transform="translate(0.5)"/>
</clipPath>
</defs>
</svg>
