<svg width="216" height="81" viewBox="0 0 216 81" fill="none" xmlns="http://www.w3.org/2000/svg">
<path d="M47.8641 20.4809C53.647 24.6818 56.9492 31.5314 56.9656 39.4936C56.9733 43.2824 56.3365 46.3783 55.0705 48.6159C53.6855 51.0638 51.5378 52.4607 48.9943 52.4607C47.4021 52.4607 46.0159 51.8858 45.0007 50.9326C43.8178 51.9577 42.3922 52.4859 40.8777 52.4859C38.3961 52.4859 36.4929 51.2746 35.5914 49.1439C34.887 47.4788 34.8445 45.3846 35.3408 43.0145L35.3684 42.8849C35.7152 41.2848 35.672 40.0188 35.3413 39.1363C35.1112 38.5221 34.7698 38.1618 34.3646 38.0023C33.4402 37.6383 32.1051 38.2436 31.2226 39.8663C29.8383 42.4116 29.8728 46.7448 31.6476 50.1625C33.8482 54.4001 38.3263 56.9532 45.263 56.9532C51.9519 56.9532 56.7446 53.7729 59.1223 48.1748C61.5001 42.5764 61.2525 34.9869 58.2694 27.2279L58.1781 26.9928L62.3598 25.3499C69.7512 44.2327 62.4372 61.4532 45.263 61.4532C36.6974 61.4532 30.6602 58.0114 27.6629 52.2394C25.2112 47.5182 25.1641 41.6008 27.2783 37.7133C29.1814 34.2142 32.8263 32.5615 36.0076 33.8141C39.3184 35.1178 40.7755 38.9317 39.7885 43.6951L39.7578 43.8398C39.4118 45.4362 39.4299 46.6856 39.727 47.3877C39.9112 47.8232 40.1669 47.9859 40.8777 47.9859C41.4647 47.9859 41.9796 47.7307 42.4644 47.0961C42.8388 46.6059 43.1604 45.9319 43.41 45.0676C43.4318 44.975 43.4558 44.8822 43.4817 44.7892L43.5194 44.658C43.712 43.876 43.851 42.9566 43.9247 41.896C44.3254 36.1277 41.91 31.9284 37.7884 30.0585C33.8716 28.2814 29.0946 28.973 25.6584 31.9875C22.4048 34.8418 20.6067 39.4612 20.8647 44.4591C21.143 49.8494 23.7421 55.1308 28.5031 59.274L28.648 59.3992L25.7272 62.8179C19.9439 57.8586 16.7241 51.3756 16.379 44.6915C16.0522 38.3607 18.3737 32.3968 22.6994 28.602C27.4657 24.4207 34.1251 23.4566 39.6414 25.9592C45.4986 28.6166 48.9347 34.5906 48.4055 42.2085C48.3037 43.6748 48.0909 44.9904 47.7687 46.1544C47.5068 47.2992 48.0496 47.9607 48.9943 47.9607C49.8311 47.9607 50.5384 47.5006 51.1629 46.3969C51.9966 44.9232 52.4801 42.5727 52.4739 39.5029C52.4461 25.9821 41.4834 17.8832 27.2024 21.6164L26.7687 21.7331L25.5721 17.3957C34.0626 15.0447 41.9774 16.2045 47.8641 20.4809Z" fill="#00BF86"/>
<path fill-rule="evenodd" clip-rule="evenodd" d="M74.3813 32.6787H79.035L81.7349 42.2413C82.0904 43.4953 82.3036 45.0707 82.3036 45.0707C82.3036 45.0707 82.4454 43.4953 82.7296 42.2775L84.8966 32.6787H89.5854L91.7524 42.2775C92.037 43.4953 92.2143 45.0707 92.2143 45.0707C92.2143 45.0707 92.392 43.4953 92.7471 42.2413L95.4824 32.6787H100.1L94.4168 50.6227H90.1186L87.7387 40.952C87.4542 39.7346 87.2769 38.2303 87.2769 38.2303C87.2769 38.2303 87.0637 39.7346 86.7791 40.952L84.3989 50.6227H80.0652L74.3813 32.6787Z" fill="white"/>
<path fill-rule="evenodd" clip-rule="evenodd" d="M113.137 41.633C113.137 38.8394 111.361 36.7617 108.909 36.7617C106.352 36.7617 104.505 38.8394 104.505 41.633C104.505 44.4624 106.352 46.5039 108.909 46.5039C111.361 46.5039 113.137 44.4986 113.137 41.633ZM99.6714 41.6326C99.6714 36.4752 102.798 32.3203 107.7 32.3203C109.76 32.3203 111.962 33.1444 113.242 34.8632V32.6787H117.895V50.5865H113.242V48.4377C111.998 50.157 109.76 50.9449 107.7 50.9449C102.798 50.9449 99.6714 46.79 99.6714 41.6326Z" fill="white"/>
<path fill-rule="evenodd" clip-rule="evenodd" d="M121.911 51.4826C124.113 51.4826 124.93 50.7305 125.57 49.3338L125.96 48.5455L118.536 32.6792H123.367L126.955 41.0602C127.488 42.3137 128.127 44.1045 128.127 44.1045C128.127 44.1045 128.873 41.9911 129.264 40.9525L132.496 32.6792H137.257L129.371 51.0885C127.452 55.4945 124.113 55.8521 121.911 55.8521V51.4826Z" fill="white"/>
<path fill-rule="evenodd" clip-rule="evenodd" d="M151.965 50.5874H156.725V27.0204H151.965V50.5874ZM140.774 36.5823H138.002V32.7143H140.774V31.5322C140.774 27.3777 143.047 25.5869 146.067 25.5869C147.665 25.5869 149.441 26.0522 150.685 26.6975L149.335 30.2425C148.944 30.0637 148.163 29.7057 147.345 29.7057C146.351 29.7057 145.534 30.2071 145.534 32.0694V32.7143H149.974V36.5823H145.534V50.5867H140.774V36.5823Z" fill="white"/>
<path fill-rule="evenodd" clip-rule="evenodd" d="M161.41 51.4826C163.613 51.4826 164.43 50.7305 165.069 49.3338L165.46 48.5455L158.036 32.6792H162.867L166.454 41.0602C166.987 42.3137 167.627 44.1045 167.627 44.1045C167.627 44.1045 168.373 41.9911 168.764 40.9525L171.996 32.6792H176.756L168.87 51.0885C166.952 55.4945 163.613 55.8521 161.41 55.8521V51.4826Z" fill="white"/>
<path fill-rule="evenodd" clip-rule="evenodd" d="M188.976 40.0934C188.621 37.8369 186.845 36.3326 184.678 36.3326C182.618 36.3326 180.841 37.8369 180.38 40.0934H188.976ZM175.62 41.6331C175.62 36.4757 179.599 32.3208 184.821 32.3208C189.653 32.3208 193.453 36.4757 193.453 41.5612C193.453 42.421 193.347 43.2804 193.347 43.2804H180.452C181.02 45.7519 183.045 46.9339 185.39 46.9339C187.095 46.9339 188.871 46.4325 190.185 45.5369L191.961 48.9754C189.972 50.3005 187.663 50.945 185.354 50.945C180.168 50.945 175.62 47.5426 175.62 41.6331Z" fill="white"/>
<path fill-rule="evenodd" clip-rule="evenodd" d="M195.159 32.6783H199.847V36.1164C200.345 34.6479 202.157 32.3203 206.064 32.3203V37.5492C201.944 37.5492 199.919 39.4473 199.919 43.7099V50.5861H195.159V32.6783Z" fill="white"/>
</svg>
