<svg width="116" height="30" viewBox="0 0 116 30" fill="none" xmlns="http://www.w3.org/2000/svg">
<g clip-path="url(#clip0)">
<path d="M68.052 8.02647C66.5499 8.03712 65.0845 8.50736 63.8404 9.37793C62.5963 10.2485 61.6293 11.4804 61.0611 12.9185C60.4929 14.3565 60.3491 15.9363 60.6477 17.4588C60.9463 18.9813 61.6739 20.3783 62.739 21.4737C63.804 22.5692 65.1588 23.3141 66.6325 23.6146C68.1062 23.9151 69.633 23.7577 71.0204 23.1622C72.4078 22.5668 73.5937 21.5599 74.4286 20.2686C75.2636 18.9772 75.7103 17.4592 75.7124 15.9057C75.7119 14.8675 75.5132 13.8396 75.1275 12.881C74.7419 11.9225 74.1769 11.0521 73.4652 10.32C72.7534 9.58787 71.9087 9.00837 70.9798 8.61478C70.0508 8.22119 69.0558 8.02126 68.052 8.02647ZM68.052 23.2024C66.2073 23.2024 64.6946 19.9011 64.6946 15.9039C64.6946 11.8654 66.2073 8.60905 68.052 8.60905C69.8966 8.60905 71.4197 11.8654 71.4197 15.9039C71.4197 19.9011 69.9175 23.2024 68.052 23.2024Z" fill="#9CA3AF"/>
<path d="M44.5075 8.02649C43.0055 8.03749 41.5403 8.50803 40.2964 9.37882C39.0526 10.2496 38.0858 11.4817 37.5179 12.9197C36.95 14.3578 36.8064 15.9376 37.1052 17.4599C37.404 18.9823 38.1318 20.3791 39.1969 21.4744C40.262 22.5697 41.6167 23.3144 43.0904 23.6147C44.5641 23.9151 46.0908 23.7576 47.478 23.1621C48.8653 22.5666 50.0511 21.5597 50.886 20.2684C51.7209 18.9771 52.1676 17.4591 52.1697 15.9057C52.1694 14.8673 51.9708 13.8391 51.5851 12.8803C51.1995 11.9215 50.6344 11.051 49.9223 10.3188C49.2103 9.58665 48.3654 9.0072 47.4361 8.6138C46.5069 8.2204 45.5116 8.0208 44.5075 8.02649ZM44.5075 23.2024C42.6628 23.2024 41.1502 19.9011 41.1502 15.9039C41.1502 11.8654 42.6628 8.60907 44.5075 8.60907C46.3522 8.60907 47.8822 11.8654 47.8822 15.9039C47.8822 19.9011 46.38 23.2024 44.5144 23.2024" fill="#9CA3AF"/>
<path d="M30.3652 20.1725C27.4269 20.1725 25.3857 17.871 25.3092 14.8034C25.2275 11.5003 26.5262 8.65216 28.3657 8.65216C29.4993 8.65216 30.3738 10.3154 30.6033 11.6424C30.7772 12.6187 30.6034 12.8417 29.7688 13.0341C28.9343 13.2265 24.5685 14.0608 24.5685 14.0608L25.1266 14.4348C25.1266 14.4348 34.2319 12.8849 34.9134 12.714C34.2041 9.94858 31.6239 8.02642 28.5622 8.02642C27.5162 8.02248 26.4805 8.24136 25.5199 8.66943C24.5592 9.09749 23.694 9.72556 22.9783 10.5145C22.2626 11.3035 21.7116 12.2364 21.3598 13.2552C21.0079 14.2739 20.8626 15.3567 20.9331 16.4361C21.1921 20.5843 24.6085 23.7993 28.6283 23.7615C32.3837 23.7274 35.1516 20.9277 35.5359 17.256L35.2333 17.1176C34.8856 18.3529 33.1991 20.1743 30.3652 20.1743" fill="#9CA3AF"/>
<path d="M110.82 20.1725C107.882 20.1725 105.841 17.8709 105.764 14.8034C105.683 11.5003 106.981 8.65213 108.821 8.65213C109.954 8.65213 110.829 10.3154 111.059 11.6424C111.232 12.6187 111.059 12.8417 110.224 13.0341C109.389 13.2265 105.024 14.0608 105.024 14.0608L105.582 14.4348C105.582 14.4348 114.685 12.8848 115.369 12.714C114.659 9.94855 112.079 8.02639 109.016 8.02639C107.97 8.02394 106.936 8.24391 105.977 8.67263C105.017 9.10135 104.153 9.72964 103.439 10.5184C102.724 11.3072 102.174 12.2396 101.823 13.2577C101.472 14.2757 101.327 15.3576 101.397 16.4361C101.656 20.5843 105.072 23.7993 109.092 23.7615C112.848 23.7273 115.615 20.9277 116 17.256L115.697 17.1175C115.349 18.3528 113.663 20.1743 110.829 20.1743" fill="#9CA3AF"/>
<path d="M82.4445 19.4301C80.6641 19.4301 79.4767 19.4517 79.4767 19.0004C79.4767 18.4268 80.5025 18.3621 83.6024 18.3621C87.3753 18.3621 90.178 16.1504 90.178 13.0361C90.178 11.1913 88.5993 9.51545 87.2014 8.68833C87.2757 8.66284 87.3528 8.64713 87.4309 8.64158C88.3728 8.99844 89.2377 9.54342 89.9763 10.2455C91.1412 11.416 91.541 12.6675 91.8488 13.5018C91.9518 13.5109 92.0553 13.5109 92.1583 13.5018C92.1583 13.5018 91.9427 10.0962 91.9009 9.1864C89.4124 8.45042 86.8392 8.06515 84.2509 8.04102C79.7635 8.04102 77.046 10.4055 77.046 13.0433C77.046 15.6811 78.8629 17.5134 81.6239 17.9791C79.654 18.0366 77.1243 18.6534 77.4964 21.1509C77.7154 22.6181 79.421 23.5514 81.8255 23.5514H84.7412C86.9145 23.5514 88.0829 24.6572 88.0829 26.1028C88.0829 27.9711 86.5025 28.8719 84.7013 28.8719C80.4851 28.8719 77.4285 23.5352 77.2112 22.8015L76.9522 22.8447L76.4792 27.8002C76.4792 27.8002 79.3184 29.4779 83.7328 29.4779C87.843 29.4779 91.3567 27.5935 91.3567 24.2059C91.3567 20.9315 88.3437 19.4373 85.4663 19.4373L82.4445 19.4301ZM81.0901 13.2015C81.0901 9.86787 82.3593 8.60921 83.6094 8.60921C84.8595 8.60921 86.1356 9.86787 86.1356 13.2015C86.1356 16.501 84.8734 17.6878 83.6094 17.6878C82.3454 17.6878 81.0901 16.501 81.0901 13.2015Z" fill="#9CA3AF"/>
<path d="M10.9204 2.94696C15.4669 2.94696 18.8642 10.0171 19.3475 11.1157H19.6692L19.1302 3.69677C19.1302 3.69677 14.6271 2.29785 10.9673 2.29785C4.75343 2.29785 0 6.52517 0 13.0325C0 18.7306 3.50161 23.7617 9.89109 23.7617C16.3484 23.7617 18.8016 22.3771 18.8016 22.3771V11.2182L11.428 13.0019V13.4712L12.2643 13.3597C13.7509 13.1799 14.2829 14.1329 14.3507 15.6972C14.3681 16.1468 14.3803 16.5549 14.3803 16.8372V22.298C14.3805 22.3625 14.3684 22.4263 14.3446 22.4859C14.3208 22.5455 14.2858 22.5995 14.2416 22.645C14.1975 22.6905 14.1451 22.7265 14.0874 22.7509C14.0297 22.7753 13.9679 22.7876 13.9056 22.7871C12.3148 22.7745 5.68534 20.7948 4.6665 13.8722C3.94844 8.99035 6.01394 2.94696 10.9256 2.94696" fill="#9CA3AF"/>
<path d="M94.5718 2.62813C94.5714 2.14724 94.709 1.67706 94.9671 1.27704C95.2252 0.877026 95.5922 0.565156 96.0217 0.380882C96.4512 0.196608 96.9238 0.148207 97.3799 0.241805C97.836 0.335404 98.255 0.566794 98.5839 0.906707C98.9129 1.24662 99.1369 1.67978 99.2278 2.15141C99.3186 2.62303 99.2722 3.11191 99.0943 3.55623C98.9164 4.00055 98.6151 4.38032 98.2285 4.64753C97.8419 4.91473 97.3874 5.05735 96.9224 5.05735C96.6138 5.05759 96.3082 4.99493 96.023 4.87296C95.7378 4.75098 95.4787 4.57208 95.2604 4.34648C95.0421 4.12089 94.8689 3.85301 94.7507 3.55817C94.6326 3.26332 94.5718 2.94729 94.5718 2.62813Z" fill="#9CA3AF"/>
<path d="M93.3402 23.5258H100.816V23.1464C100.699 23.1311 100.583 23.1095 100.469 23.0816C99.6253 22.8784 99.2915 22.1304 99.2915 21.0606V7.34473L93.3801 8.76342V9.21294C93.4722 9.18132 93.5683 9.16375 93.6653 9.1608C95.0371 9.1608 94.8615 11.8579 94.8615 14.0552V21.0678C94.8615 22.1376 94.5276 22.8856 93.6844 23.0888C93.5697 23.1167 93.4536 23.1383 93.3367 23.1535V23.5329" fill="#9CA3AF"/>
<path d="M59.7129 23.0848C58.8696 22.8816 58.5428 22.1336 58.5428 21.0638V0.125L52.2263 1.64079V2.03637C52.3914 2.00532 52.558 1.98311 52.7253 1.96984C54.2623 1.93928 54.1162 3.70141 54.1162 5.92564V21.0584C54.1162 22.1282 53.7685 22.8763 52.9339 23.0794C52.8192 23.1073 52.7031 23.1289 52.5862 23.1442V23.5236H60.0728V23.1442C59.9559 23.1289 59.8398 23.1073 59.7251 23.0794" fill="#9CA3AF"/>
</g>
<defs>
<clipPath id="clip0">
<rect width="116" height="29.5918" fill="white"/>
</clipPath>
</defs>
</svg>
