<svg width="268" height="177" viewBox="0 0 268 177" fill="none" xmlns="http://www.w3.org/2000/svg">
<rect y="141" width="124" height="36" rx="18" fill="#10B981"/>
<path d="M46.7076 156.891C46.4758 154.968 45.0204 153.862 43.0934 153.862C40.8941 153.862 39.215 155.415 39.215 158.139C39.215 160.854 40.8656 162.416 43.0934 162.416C45.2278 162.416 46.5165 160.997 46.7076 159.464L44.9269 159.456C44.7602 160.346 44.061 160.859 43.1219 160.859C41.8576 160.859 40.9998 159.919 40.9998 158.139C40.9998 156.407 41.8454 155.419 43.1341 155.419C44.0976 155.419 44.7928 155.976 44.9269 156.891H46.7076ZM49.718 162.42C50.6408 162.42 51.2385 162.017 51.5434 161.436H51.5921V162.302H53.2346V158.09C53.2346 156.602 51.9743 155.976 50.5839 155.976C49.0879 155.976 48.104 156.692 47.8642 157.83L49.4659 157.96C49.5838 157.545 49.9538 157.24 50.5758 157.24C51.1653 157.24 51.5027 157.537 51.5027 158.049V158.074C51.5027 158.476 51.0758 158.529 49.9904 158.635C48.7545 158.749 47.6446 159.163 47.6446 160.558C47.6446 161.794 48.5268 162.42 49.718 162.42ZM50.214 161.224C49.6814 161.224 49.2993 160.976 49.2993 160.501C49.2993 160.013 49.7017 159.773 50.3115 159.688C50.6896 159.635 51.3076 159.545 51.5149 159.407V160.07C51.5149 160.724 50.9742 161.224 50.214 161.224ZM59.7738 157.838C59.6193 156.687 58.6924 155.976 57.115 155.976C55.5173 155.976 54.4643 156.716 54.4684 157.919C54.4643 158.854 55.0538 159.46 56.2734 159.704L57.3548 159.919C57.8996 160.029 58.1476 160.228 58.1557 160.541C58.1476 160.911 57.7451 161.176 57.1394 161.176C56.5214 161.176 56.1108 160.911 56.0051 160.403L54.3017 160.493C54.4643 161.688 55.4807 162.424 57.1353 162.424C58.7533 162.424 59.912 161.598 59.916 160.367C59.912 159.464 59.3225 158.923 58.111 158.675L56.9808 158.448C56.3995 158.322 56.184 158.123 56.1881 157.822C56.184 157.448 56.6068 157.204 57.1434 157.204C57.7451 157.204 58.1029 157.533 58.1883 157.936L59.7738 157.838ZM62.7384 158.692C62.7425 157.887 63.2344 157.415 63.9418 157.415C64.6451 157.415 65.0598 157.866 65.0557 158.635V162.302H66.7876V158.326C66.7916 156.862 65.9298 155.976 64.6289 155.976C63.6816 155.976 63.0474 156.423 62.7628 157.159H62.6897V153.976H61.0066V162.302H62.7384V158.692ZM73.6215 162.424C75.516 162.424 76.695 161.127 76.695 159.204C76.695 157.269 75.516 155.976 73.6215 155.976C71.727 155.976 70.5481 157.269 70.5481 159.204C70.5481 161.127 71.727 162.424 73.6215 162.424ZM73.6296 161.082C72.7556 161.082 72.3084 160.281 72.3084 159.192C72.3084 158.102 72.7556 157.297 73.6296 157.297C74.4874 157.297 74.9346 158.102 74.9346 159.192C74.9346 160.281 74.4874 161.082 73.6296 161.082ZM81.1791 156.057H79.9391V155.639C79.9391 155.216 80.1099 154.968 80.6181 154.968C80.8254 154.968 81.0368 155.013 81.175 155.057L81.4799 153.756C81.2645 153.691 80.7888 153.586 80.2562 153.586C79.0813 153.586 78.2073 154.248 78.2073 155.606V156.057H77.3251V157.358H78.2073V162.302H79.9391V157.358H81.1791V156.057ZM85.5951 156.057H84.3552V155.639C84.3552 155.216 84.5259 154.968 85.0341 154.968C85.2414 154.968 85.4528 155.013 85.5911 155.057L85.896 153.756C85.6805 153.691 85.2048 153.586 84.6723 153.586C83.4974 153.586 82.6233 154.248 82.6233 155.606V156.057H81.7411V157.358H82.6233V162.302H84.3552V157.358H85.5951V156.057ZM89.2753 162.424C90.8202 162.424 91.8609 161.672 92.1048 160.513L90.5031 160.407C90.3283 160.883 89.8811 161.131 89.3038 161.131C88.4379 161.131 87.889 160.558 87.889 159.627V159.623H92.1414V159.147C92.1414 157.025 90.8568 155.976 89.2062 155.976C87.3687 155.976 86.1775 157.281 86.1775 159.208C86.1775 161.188 87.3524 162.424 89.2753 162.424ZM87.889 158.549C87.9256 157.838 88.4663 157.269 89.2347 157.269C89.9868 157.269 90.5071 157.805 90.5112 158.549H87.889ZM93.2716 162.302H95.0035V158.769C95.0035 158.001 95.5645 157.472 96.3288 157.472C96.5686 157.472 96.8979 157.513 97.0606 157.566V156.029C96.9061 155.992 96.6906 155.968 96.5158 155.968C95.8166 155.968 95.2433 156.374 95.0157 157.147H94.9506V156.057H93.2716V162.302ZM103.152 157.838C102.997 156.687 102.07 155.976 100.493 155.976C98.8951 155.976 97.8421 156.716 97.8462 157.919C97.8421 158.854 98.4316 159.46 99.6512 159.704L100.733 159.919C101.277 160.029 101.525 160.228 101.534 160.541C101.525 160.911 101.123 161.176 100.517 161.176C99.8992 161.176 99.4886 160.911 99.3829 160.403L97.6795 160.493C97.8421 161.688 98.8585 162.424 100.513 162.424C102.131 162.424 103.29 161.598 103.294 160.367C103.29 159.464 102.7 158.923 101.489 158.675L100.359 158.448C99.7773 158.322 99.5618 158.123 99.5659 157.822C99.5618 157.448 99.9846 157.204 100.521 157.204C101.123 157.204 101.481 157.533 101.566 157.936L103.152 157.838Z" fill="white"/>
<rect x="4" y="145" width="28" height="28" rx="14" fill="white" fill-opacity="0.5"/>
<path d="M21.3331 157V155.666C21.3331 154.93 20.7362 154.333 19.9998 154.333H13.3331C12.5967 154.333 11.9998 154.93 11.9998 155.666V159.666C11.9998 160.403 12.5967 161 13.3331 161H14.6665M15.9998 163.666H22.6665C23.4028 163.666 23.9998 163.069 23.9998 162.333V158.333C23.9998 157.597 23.4028 157 22.6665 157H15.9998C15.2634 157 14.6665 157.597 14.6665 158.333V162.333C14.6665 163.069 15.2634 163.666 15.9998 163.666ZM20.6665 160.333C20.6665 161.069 20.0695 161.666 19.3331 161.666C18.5967 161.666 17.9998 161.069 17.9998 160.333C17.9998 159.597 18.5967 159 19.3331 159C20.0695 159 20.6665 159.597 20.6665 160.333Z" stroke="white" stroke-width="1.43102" stroke-linecap="round" stroke-linejoin="round"/>
<rect x="171" y="141" width="97" height="36" rx="18" fill="#06B6D4"/>
<path d="M212.484 153.674H210.724V162H212.484V153.674ZM215.632 158.39C215.636 157.585 216.115 157.113 216.815 157.113C217.51 157.113 217.929 157.569 217.924 158.333V162H219.656V158.024C219.656 156.569 218.803 155.674 217.502 155.674C216.575 155.674 215.904 156.13 215.623 156.857H215.55V155.756H213.9V162H215.632V158.39ZM226.217 157.536C226.062 156.386 225.135 155.674 223.558 155.674C221.96 155.674 220.907 156.414 220.912 157.618C220.907 158.553 221.497 159.158 222.717 159.402L223.798 159.618C224.343 159.727 224.591 159.927 224.599 160.24C224.591 160.61 224.188 160.874 223.582 160.874C222.965 160.874 222.554 160.61 222.448 160.101L220.745 160.191C220.907 161.386 221.924 162.122 223.578 162.122C225.196 162.122 226.355 161.297 226.359 160.065C226.355 159.162 225.766 158.622 224.554 158.374L223.424 158.146C222.843 158.02 222.627 157.821 222.631 157.52C222.627 157.146 223.05 156.902 223.587 156.902C224.188 156.902 224.546 157.231 224.631 157.634L226.217 157.536ZM227.45 162H229.182V155.756H227.45V162ZM228.32 154.951C228.836 154.951 229.259 154.556 229.259 154.072C229.259 153.593 228.836 153.198 228.32 153.198C227.807 153.198 227.385 153.593 227.385 154.072C227.385 154.556 227.807 154.951 228.32 154.951ZM233.382 164.472C235.167 164.472 236.435 163.659 236.435 162.061V155.756H234.716V156.804H234.651C234.419 156.296 233.911 155.674 232.866 155.674C231.496 155.674 230.337 156.739 230.337 158.866C230.337 160.943 231.463 161.911 232.87 161.911C233.866 161.911 234.423 161.411 234.651 160.894H234.724V162.037C234.724 162.894 234.175 163.228 233.423 163.228C232.658 163.228 232.272 162.894 232.13 162.516L230.528 162.732C230.736 163.716 231.699 164.472 233.382 164.472ZM233.419 160.61C232.569 160.61 232.106 159.935 232.106 158.857C232.106 157.796 232.561 157.052 233.419 157.052C234.26 157.052 234.732 157.764 234.732 158.857C234.732 159.959 234.252 160.61 233.419 160.61ZM239.545 158.39C239.549 157.585 240.041 157.113 240.749 157.113C241.452 157.113 241.867 157.565 241.863 158.333V162H243.594V158.024C243.598 156.56 242.737 155.674 241.436 155.674C240.488 155.674 239.854 156.121 239.57 156.857H239.496V153.674H237.813V162H239.545V158.39ZM248.279 155.756H247.104V154.259H245.372V155.756H244.518V157.056H245.372V160.309C245.364 161.532 246.197 162.138 247.453 162.085C247.901 162.069 248.218 161.98 248.393 161.923L248.12 160.634C248.035 160.65 247.852 160.691 247.689 160.691C247.344 160.691 247.104 160.561 247.104 160.081V157.056H248.279V155.756ZM254.513 157.536C254.359 156.386 253.432 155.674 251.854 155.674C250.257 155.674 249.204 156.414 249.208 157.618C249.204 158.553 249.793 159.158 251.013 159.402L252.094 159.618C252.639 159.727 252.887 159.927 252.895 160.24C252.887 160.61 252.484 160.874 251.879 160.874C251.261 160.874 250.85 160.61 250.744 160.101L249.041 160.191C249.204 161.386 250.22 162.122 251.875 162.122C253.493 162.122 254.651 161.297 254.655 160.065C254.651 159.162 254.062 158.622 252.85 158.374L251.72 158.146C251.139 158.02 250.923 157.821 250.927 157.52C250.923 157.146 251.346 156.902 251.883 156.902C252.484 156.902 252.842 157.231 252.928 157.634L254.513 157.536Z" fill="white"/>
<rect x="175" y="145" width="28" height="28" rx="14" fill="white" fill-opacity="0.5"/>
<path d="M187 163.667V159.667C187 158.93 186.403 158.333 185.667 158.333H184.333C183.597 158.333 183 158.93 183 159.667V163.667C183 164.403 183.597 165 184.333 165H185.667C186.403 165 187 164.403 187 163.667ZM187 163.667V157C187 156.264 187.597 155.667 188.333 155.667H189.667C190.403 155.667 191 156.264 191 157V163.667M187 163.667C187 164.403 187.597 165 188.333 165H189.667C190.403 165 191 164.403 191 163.667M191 163.667V154.333C191 153.597 191.597 153 192.333 153H193.667C194.403 153 195 153.597 195 154.333V163.667C195 164.403 194.403 165 193.667 165H192.333C191.597 165 191 164.403 191 163.667Z" stroke="white" stroke-width="2" stroke-linecap="round" stroke-linejoin="round"/>
<g filter="url(#filter0_dd)">
<rect x="52" y="2" width="182" height="74" rx="6" fill="white"/>
<g clip-path="url(#clip0)">
<path d="M93.5637 23.6773C97.9813 26.8929 100.504 32.1358 100.516 38.2303C100.522 41.1303 100.036 43.5 99.0686 45.2128C98.0107 47.0865 96.37 48.1557 94.4271 48.1557C93.2108 48.1557 92.1519 47.7157 91.3764 46.986C90.4728 47.7707 89.3838 48.175 88.2269 48.175C86.3313 48.175 84.8774 47.2478 84.1888 45.6169C83.6506 44.3424 83.6182 42.7394 83.9973 40.9253L84.0184 40.8261C84.2833 39.6013 84.2503 38.6323 83.9977 37.9568C83.8219 37.4867 83.5611 37.2109 83.2516 37.0888C82.5454 36.8102 81.5256 37.2735 80.8514 38.5156C79.794 40.4639 79.8204 43.7806 81.1761 46.3966C82.8571 49.6402 86.2779 51.5944 91.5768 51.5944C96.6863 51.5944 100.347 49.1601 102.164 44.8751C103.98 40.59 103.791 34.7807 101.512 28.8417L101.443 28.6617L104.637 27.4042C110.283 41.8578 104.696 55.0389 91.5768 55.0389C85.0336 55.0389 80.4219 52.4044 78.1322 47.9863C76.2595 44.3726 76.2235 39.8432 77.8385 36.8676C79.2922 34.1892 82.0765 32.9242 84.5067 33.883C87.0357 34.8809 88.1488 37.8002 87.3948 41.4463L87.3714 41.557C87.1071 42.7789 87.1209 43.7353 87.3479 44.2727C87.4886 44.606 87.6839 44.7306 88.2269 44.7306C88.6753 44.7306 89.0687 44.5352 89.439 44.0495C89.725 43.6743 89.9706 43.1583 90.1613 42.4968C90.1779 42.4259 90.1963 42.3549 90.2161 42.2837L90.2449 42.1833C90.392 41.5847 90.4982 40.881 90.5544 40.0692C90.8606 35.6539 89.0155 32.4396 85.867 31.0083C82.875 29.6481 79.2259 30.1775 76.601 32.4849C74.1157 34.6696 72.7421 38.2055 72.9392 42.031C73.1518 46.1569 75.1372 50.1995 78.774 53.3709L78.8848 53.4667L76.6536 56.0835C72.2358 52.2874 69.7762 47.3252 69.5126 42.2089C69.263 37.3631 71.0363 32.7981 74.3407 29.8935C77.9816 26.693 83.0687 25.955 87.2825 27.8706C91.7567 29.9046 94.3816 34.4773 93.9773 40.3083C93.8995 41.4307 93.737 42.4377 93.4909 43.3287C93.2908 44.2049 93.7054 44.7113 94.4271 44.7113C95.0663 44.7113 95.6066 44.3591 96.0836 43.5143C96.7205 42.3863 97.0899 40.5871 97.0851 38.2374C97.0639 27.8881 88.6896 21.689 77.7805 24.5465L77.4492 24.6358L76.5351 21.3159C83.0209 19.5163 89.0669 20.404 93.5637 23.6773Z" fill="#10B981"/>
<path fill-rule="evenodd" clip-rule="evenodd" d="M113.82 33.0127H117.375L119.437 40.3322C119.709 41.2921 119.872 42.498 119.872 42.498C119.872 42.498 119.98 41.2921 120.197 40.3599L121.852 33.0127H125.434L127.089 40.3599C127.307 41.2921 127.442 42.498 127.442 42.498C127.442 42.498 127.578 41.2921 127.849 40.3322L129.939 33.0127H133.466L129.125 46.7476H125.841L124.023 39.3453C123.806 38.4135 123.671 37.262 123.671 37.262C123.671 37.262 123.508 38.4135 123.29 39.3453L121.472 46.7476H118.162L113.82 33.0127Z" fill="#111827"/>
<path fill-rule="evenodd" clip-rule="evenodd" d="M143.425 39.8675C143.425 37.7291 142.068 36.1388 140.195 36.1388C138.242 36.1388 136.831 37.7291 136.831 39.8675C136.831 42.0332 138.242 43.5958 140.195 43.5958C142.068 43.5958 143.425 42.0609 143.425 39.8675ZM133.14 39.8672C133.14 35.9196 135.529 32.7393 139.273 32.7393C140.847 32.7393 142.529 33.37 143.507 34.6857V33.0136H147.061V46.7208H143.507V45.076C142.557 46.392 140.847 46.9951 139.273 46.9951C135.529 46.9951 133.14 43.8148 133.14 39.8672Z" fill="#111827"/>
<path fill-rule="evenodd" clip-rule="evenodd" d="M150.127 47.4064C151.81 47.4064 152.434 46.8307 152.922 45.7617L153.221 45.1583L147.549 33.0137H151.24L153.981 39.4287C154.387 40.3883 154.876 41.759 154.876 41.759C154.876 41.759 155.446 40.1413 155.744 39.3463L158.214 33.0137H161.85L155.826 47.1047C154.36 50.4772 151.81 50.7509 150.127 50.7509V47.4064Z" fill="#111827"/>
<path fill-rule="evenodd" clip-rule="evenodd" d="M173.084 46.7204H176.72V28.6814H173.084V46.7204ZM164.536 36.0012H162.419V33.0405H164.536V32.1357C164.536 28.9557 166.272 27.585 168.579 27.585C169.8 27.585 171.157 27.9411 172.107 28.435L171.075 31.1485C170.777 31.0116 170.18 30.7376 169.556 30.7376C168.796 30.7376 168.172 31.1214 168.172 32.5469V33.0405H171.564V36.0012H168.172V46.7206H164.536V36.0012Z" fill="#111827"/>
<path fill-rule="evenodd" clip-rule="evenodd" d="M180.302 47.4064C181.984 47.4064 182.608 46.8307 183.097 45.7617L183.395 45.1583L177.724 33.0137H181.414L184.155 39.4287C184.562 40.3883 185.051 41.759 185.051 41.759C185.051 41.759 185.62 40.1413 185.919 39.3463L188.388 33.0137H192.024L186 47.1047C184.535 50.4772 181.984 50.7509 180.302 50.7509V47.4064Z" fill="#111827"/>
<path fill-rule="evenodd" clip-rule="evenodd" d="M201.359 38.6887C201.088 36.9615 199.73 35.8101 198.075 35.8101C196.501 35.8101 195.144 36.9615 194.792 38.6887H201.359ZM191.155 39.8672C191.155 35.9196 194.195 32.7393 198.184 32.7393C201.874 32.7393 204.778 35.9196 204.778 39.8121C204.778 40.4703 204.696 41.1281 204.696 41.1281H194.846C195.28 43.0198 196.827 43.9246 198.618 43.9246C199.92 43.9246 201.277 43.5408 202.281 42.8553L203.638 45.4872C202.118 46.5015 200.355 46.9948 198.591 46.9948C194.629 46.9948 191.155 44.3905 191.155 39.8672Z" fill="#111827"/>
<path fill-rule="evenodd" clip-rule="evenodd" d="M206.08 33.0133H209.662V35.6449C210.042 34.5209 211.426 32.7393 214.411 32.7393V36.7416C211.263 36.7416 209.716 38.1945 209.716 41.4572V46.7205H206.08V33.0133Z" fill="#111827"/>
</g>
</g>
<path d="M146.305 78.002V78.002C146.137 88.1218 154.286 96.4762 164.408 96.5624L203.698 96.8969C214.859 96.9919 223.844 106.205 223.659 117.364L223.273 140.518" stroke="#D1D5DB" stroke-width="2.06219" stroke-dasharray="4.12 4.12"/>
<path d="M146 79V79C145.829 89.212 137.491 97.3406 127.277 97.2538L82.4389 96.8725C71.5101 96.7796 62.5893 105.477 62.4063 116.403L62.0037 140.437" stroke="#D1D5DB" stroke-width="2.06219" stroke-dasharray="4.12 4.12"/>
<defs>
<filter id="filter0_dd" x="49" y="0" width="188" height="80" filterUnits="userSpaceOnUse" color-interpolation-filters="sRGB">
<feFlood flood-opacity="0" result="BackgroundImageFix"/>
<feColorMatrix in="SourceAlpha" type="matrix" values="0 0 0 0 0 0 0 0 0 0 0 0 0 0 0 0 0 0 127 0" result="hardAlpha"/>
<feOffset dy="1"/>
<feGaussianBlur stdDeviation="1"/>
<feColorMatrix type="matrix" values="0 0 0 0 0 0 0 0 0 0 0 0 0 0 0 0 0 0 0.06 0"/>
<feBlend mode="normal" in2="BackgroundImageFix" result="effect1_dropShadow"/>
<feColorMatrix in="SourceAlpha" type="matrix" values="0 0 0 0 0 0 0 0 0 0 0 0 0 0 0 0 0 0 127 0" result="hardAlpha"/>
<feOffset dy="1"/>
<feGaussianBlur stdDeviation="1.5"/>
<feColorMatrix type="matrix" values="0 0 0 0 0 0 0 0 0 0 0 0 0 0 0 0 0 0 0.1 0"/>
<feBlend mode="normal" in2="effect1_dropShadow" result="effect2_dropShadow"/>
<feBlend mode="normal" in="SourceGraphic" in2="effect2_dropShadow" result="shape"/>
</filter>
<clipPath id="clip0">
<rect width="152" height="40" fill="white" transform="translate(67 19)"/>
</clipPath>
</defs>
</svg>
