<svg width="416" height="217" viewBox="0 0 416 217" fill="none" xmlns="http://www.w3.org/2000/svg">
<rect y="51" width="114" height="36" rx="18" fill="#8B5CF6"/>
<path d="M39.7236 63.6741V72H41.4311V66.5605H41.5002L43.6549 71.9593H44.8176L46.9722 66.5808H47.0414V72H48.7488V63.6741H46.5779L44.285 69.2681H44.1874L41.8946 63.6741H39.7236ZM51.9473 72.1179C52.8701 72.1179 53.4677 71.7154 53.7726 71.1341H53.8214V72H55.4638V67.7882C55.4638 66.3003 54.2036 65.6742 52.8132 65.6742C51.3171 65.6742 50.3333 66.3898 50.0935 67.5281L51.6952 67.6582C51.8131 67.2435 52.1831 66.9386 52.8051 66.9386C53.3946 66.9386 53.732 67.2354 53.732 67.7476V67.772C53.732 68.1745 53.3051 68.2273 52.2197 68.333C50.9838 68.4468 49.8739 68.8615 49.8739 70.2559C49.8739 71.4918 50.7561 72.1179 51.9473 72.1179ZM52.4433 70.9227C51.9107 70.9227 51.5285 70.6747 51.5285 70.199C51.5285 69.7112 51.931 69.4713 52.5408 69.3859C52.9189 69.3331 53.5368 69.2437 53.7442 69.1054V69.7681C53.7442 70.4226 53.2035 70.9227 52.4433 70.9227ZM56.8075 72H58.5393V68.4672C58.5393 67.6988 59.1003 67.1703 59.8646 67.1703C60.1045 67.1703 60.4338 67.211 60.5964 67.2638V65.7271C60.4419 65.6905 60.2265 65.6661 60.0516 65.6661C59.3524 65.6661 58.7792 66.0727 58.5515 66.8451H58.4865V65.7555H56.8075V72ZM61.4918 72H63.2237V70.0161L63.6912 69.4835L65.3946 72H67.4232L64.9881 68.459L67.3053 65.7555H65.3173L63.3172 68.1257H63.2237V63.6741H61.4918V72ZM70.7436 72.122C72.2885 72.122 73.3292 71.3699 73.5732 70.2112L71.9714 70.1055C71.7966 70.5812 71.3494 70.8292 70.7721 70.8292C69.9062 70.8292 69.3573 70.2559 69.3573 69.325V69.3209H73.6097V68.8453C73.6097 66.7231 72.3251 65.6742 70.6745 65.6742C68.837 65.6742 67.6458 66.9792 67.6458 68.9062C67.6458 70.8861 68.8207 72.122 70.7436 72.122ZM69.3573 68.2476C69.3939 67.5362 69.9346 66.967 70.703 66.967C71.4551 66.967 71.9755 67.5037 71.9795 68.2476H69.3573ZM78.0614 65.7555H76.8865V64.2595H75.1546V65.7555H74.3009V67.0565H75.1546V70.3088C75.1465 71.5325 75.9799 72.1382 77.2361 72.0854C77.6833 72.0691 78.0004 71.9797 78.1752 71.9228L77.9028 70.634C77.8174 70.6503 77.6345 70.6909 77.4719 70.6909C77.1263 70.6909 76.8865 70.5608 76.8865 70.0811V67.0565H78.0614V65.7555ZM79.1895 72H80.9214V65.7555H79.1895V72ZM80.0595 64.9506C80.5758 64.9506 80.9986 64.5563 80.9986 64.0725C80.9986 63.5928 80.5758 63.1984 80.0595 63.1984C79.5473 63.1984 79.1245 63.5928 79.1245 64.0725C79.1245 64.5563 79.5473 64.9506 80.0595 64.9506ZM84.0405 68.3899C84.0446 67.585 84.5243 67.1134 85.2236 67.1134C85.9187 67.1134 86.3375 67.5687 86.3334 68.333V72H88.0653V68.024C88.0653 66.5686 87.2115 65.6742 85.9106 65.6742C84.9837 65.6742 84.3129 66.1296 84.0324 66.8573H83.9592V65.7555H82.3087V72H84.0405V68.3899ZM92.2435 74.4718C94.0282 74.4718 95.2966 73.6587 95.2966 72.061V65.7555H93.5769V66.8044H93.5119C93.2802 66.2962 92.772 65.6742 91.7272 65.6742C90.3571 65.6742 89.1985 66.7394 89.1985 68.8656C89.1985 70.943 90.3246 71.9106 91.7312 71.9106C92.7273 71.9106 93.2842 71.4105 93.5119 70.8942H93.5851V72.0366C93.5851 72.8944 93.0362 73.2277 92.2841 73.2277C91.5198 73.2277 91.1336 72.8944 90.9913 72.5163L89.3896 72.7318C89.5969 73.7156 90.5604 74.4718 92.2435 74.4718ZM92.2801 70.6096C91.4304 70.6096 90.967 69.9348 90.967 68.8574C90.967 67.7964 91.4223 67.0524 92.2801 67.0524C93.1216 67.0524 93.5932 67.7639 93.5932 68.8574C93.5932 69.9592 93.1135 70.6096 92.2801 70.6096Z" fill="white"/>
<rect x="4" y="55" width="28" height="28" rx="14" fill="white" fill-opacity="0.5"/>
<path d="M19.9999 70.9998L18.6666 74.3332L15.9999 66.9998L23.3332 69.6665L19.9999 70.9998ZM19.9999 70.9998L23.3332 74.3332M14.792 62.4922L15.3097 64.424M13.424 66.3097L11.4922 65.792M19.2997 63.7L17.8855 65.1142M14.1143 68.8854L12.7001 70.2996" stroke="white" stroke-width="1.33333" stroke-linecap="round" stroke-linejoin="round"/>
<rect x="224" y="50" width="114" height="36" rx="18" fill="#F59E0B"/>
<path d="M265.159 71L265.777 69.1015H268.781L269.399 71H271.285L268.415 62.6741H266.147L263.272 71H265.159ZM266.224 67.7274L267.248 64.5767H267.313L268.338 67.7274H266.224ZM273.987 67.3899C273.991 66.585 274.471 66.1134 275.17 66.1134C275.865 66.1134 276.284 66.5687 276.28 67.333V71H278.011V67.024C278.011 65.5686 277.158 64.6742 275.857 64.6742C274.93 64.6742 274.259 65.1296 273.979 65.8573H273.905V64.7555H272.255V71H273.987V67.3899ZM281.157 71.1179C282.08 71.1179 282.678 70.7154 282.982 70.1341H283.031V71H284.674V66.7882C284.674 65.3003 283.413 64.6742 282.023 64.6742C280.527 64.6742 279.543 65.3898 279.303 66.5281L280.905 66.6582C281.023 66.2435 281.393 65.9386 282.015 65.9386C282.604 65.9386 282.942 66.2354 282.942 66.7476V66.772C282.942 67.1745 282.515 67.2273 281.429 67.333C280.194 67.4468 279.084 67.8615 279.084 69.2559C279.084 70.4918 279.966 71.1179 281.157 71.1179ZM281.653 69.9227C281.12 69.9227 280.738 69.6747 280.738 69.199C280.738 68.7112 281.141 68.4713 281.751 68.3859C282.129 68.3331 282.747 68.2437 282.954 68.1054V68.7681C282.954 69.4226 282.413 69.9227 281.653 69.9227ZM287.749 62.6741H286.017V71H287.749V62.6741ZM290.206 73.3417C291.494 73.3417 292.177 72.6831 292.531 71.6749L294.958 64.7637L293.125 64.7555L291.82 69.3413H291.755L290.462 64.7555H288.64L290.88 71.1789L290.779 71.4431C290.551 72.0285 290.116 72.057 289.506 71.87L289.116 73.1628C289.364 73.2685 289.767 73.3417 290.206 73.3417ZM299.166 64.7555H297.991V63.2595H296.259V64.7555H295.405V66.0565H296.259V69.3088C296.251 70.5325 297.084 71.1382 298.34 71.0854C298.788 71.0691 299.105 70.9797 299.28 70.9228L299.007 69.634C298.922 69.6503 298.739 69.6909 298.576 69.6909C298.231 69.6909 297.991 69.5608 297.991 69.0811V66.0565H299.166V64.7555ZM300.294 71H302.026V64.7555H300.294V71ZM301.164 63.9506C301.68 63.9506 302.103 63.5563 302.103 63.0725C302.103 62.5928 301.68 62.1984 301.164 62.1984C300.652 62.1984 300.229 62.5928 300.229 63.0725C300.229 63.5563 300.652 63.9506 301.164 63.9506ZM306.234 71.122C307.897 71.122 308.942 70.1463 309.023 68.7112H307.389C307.287 69.3779 306.848 69.7519 306.255 69.7519C305.446 69.7519 304.921 69.073 304.921 67.8778C304.921 66.6988 305.45 66.024 306.255 66.024C306.889 66.024 307.296 66.4427 307.389 67.0647H309.023C308.95 65.6215 307.857 64.6742 306.226 64.6742C304.332 64.6742 303.161 65.9874 303.161 67.9022C303.161 69.8007 304.312 71.122 306.234 71.122ZM315.328 66.5362C315.173 65.3857 314.246 64.6742 312.669 64.6742C311.071 64.6742 310.018 65.4141 310.022 66.6175C310.018 67.5525 310.608 68.1583 311.827 68.4022L312.909 68.6177C313.454 68.7274 313.702 68.9266 313.71 69.2397C313.702 69.6096 313.299 69.8739 312.693 69.8739C312.075 69.8739 311.665 69.6096 311.559 69.1015L309.856 69.1909C310.018 70.3861 311.035 71.122 312.689 71.122C314.307 71.122 315.466 70.2967 315.47 69.0649C315.466 68.1624 314.876 67.6217 313.665 67.3737L312.535 67.146C311.953 67.02 311.738 66.8208 311.742 66.5199C311.738 66.1459 312.161 65.902 312.697 65.902C313.299 65.902 313.657 66.2313 313.742 66.6338L315.328 66.5362Z" fill="white"/>
<rect x="228" y="54" width="28" height="28" rx="14" fill="white" fill-opacity="0.5"/>
<path d="M241.333 62.0361C238.333 62.3678 236 64.9111 236 67.9995C236 71.3132 238.686 73.9995 242 73.9995C245.088 73.9995 247.632 71.6661 247.963 68.6662H241.333V62.0361Z" stroke="white" stroke-width="1.33333" stroke-linecap="round" stroke-linejoin="round"/>
<path d="M247.659 65.9995H244V62.341C245.705 62.9436 247.056 64.2947 247.659 65.9995Z" stroke="white" stroke-width="1.33333" stroke-linecap="round" stroke-linejoin="round"/>
<g filter="url(#filter0_dd)">
<rect x="110" y="139" width="182" height="74" rx="6" fill="white"/>
<g clip-path="url(#clip0)">
<path d="M151.564 160.677C155.981 163.893 158.504 169.136 158.516 175.23C158.522 178.13 158.036 180.5 157.069 182.213C156.011 184.087 154.37 185.156 152.427 185.156C151.211 185.156 150.152 184.716 149.376 183.986C148.473 184.771 147.384 185.175 146.227 185.175C144.331 185.175 142.877 184.248 142.189 182.617C141.651 181.342 141.618 179.739 141.997 177.925L142.018 177.826C142.283 176.601 142.25 175.632 141.998 174.957C141.822 174.487 141.561 174.211 141.252 174.089C140.545 173.81 139.526 174.274 138.851 175.516C137.794 177.464 137.82 180.781 139.176 183.397C140.857 186.64 144.278 188.594 149.577 188.594C154.686 188.594 158.347 186.16 160.164 181.875C161.98 177.59 161.791 171.781 159.512 165.842L159.442 165.662L162.637 164.404C168.283 178.858 162.696 192.039 149.577 192.039C143.034 192.039 138.422 189.404 136.132 184.986C134.259 181.373 134.223 176.843 135.838 173.868C137.292 171.189 140.077 169.924 142.507 170.883C145.036 171.881 146.149 174.8 145.395 178.446L145.371 178.557C145.107 179.779 145.121 180.735 145.348 181.273C145.489 181.606 145.684 181.731 146.227 181.731C146.675 181.731 147.069 181.535 147.439 181.049C147.725 180.674 147.971 180.158 148.161 179.497C148.178 179.426 148.196 179.355 148.216 179.284L148.245 179.183C148.392 178.585 148.498 177.881 148.554 177.069C148.861 172.654 147.015 169.44 143.867 168.008C140.875 166.648 137.226 167.178 134.601 169.485C132.116 171.67 130.742 175.205 130.939 179.031C131.152 183.157 133.137 187.2 136.774 190.371L136.885 190.467L134.654 193.083C130.236 189.287 127.776 184.325 127.513 179.209C127.263 174.363 129.036 169.798 132.341 166.893C135.982 163.693 141.069 162.955 145.282 164.871C149.757 166.905 152.382 171.477 151.977 177.308C151.899 178.431 151.737 179.438 151.491 180.329C151.291 181.205 151.705 181.711 152.427 181.711C153.066 181.711 153.607 181.359 154.084 180.514C154.72 179.386 155.09 177.587 155.085 175.237C155.064 164.888 146.69 158.689 135.78 161.546L135.449 161.636L134.535 158.316C141.021 156.516 147.067 157.404 151.564 160.677Z" fill="#10B981"/>
<path fill-rule="evenodd" clip-rule="evenodd" d="M171.82 170.013H175.375L177.437 177.332C177.709 178.292 177.872 179.498 177.872 179.498C177.872 179.498 177.98 178.292 178.197 177.36L179.852 170.013H183.434L185.09 177.36C185.307 178.292 185.442 179.498 185.442 179.498C185.442 179.498 185.578 178.292 185.849 177.332L187.939 170.013H191.466L187.125 183.748H183.841L182.023 176.345C181.806 175.413 181.671 174.262 181.671 174.262C181.671 174.262 181.508 175.413 181.29 176.345L179.472 183.748H176.162L171.82 170.013Z" fill="#111827"/>
<path fill-rule="evenodd" clip-rule="evenodd" d="M201.425 176.867C201.425 174.729 200.068 173.139 198.196 173.139C196.242 173.139 194.831 174.729 194.831 176.867C194.831 179.033 196.242 180.596 198.196 180.596C200.068 180.596 201.425 179.061 201.425 176.867ZM191.141 176.867C191.141 172.92 193.529 169.739 197.273 169.739C198.847 169.739 200.529 170.37 201.507 171.686V170.014H205.061V183.721H201.507V182.076C200.557 183.392 198.847 183.995 197.273 183.995C193.529 183.995 191.141 180.815 191.141 176.867Z" fill="#111827"/>
<path fill-rule="evenodd" clip-rule="evenodd" d="M208.127 184.406C209.81 184.406 210.434 183.831 210.922 182.762L211.221 182.158L205.549 170.014H209.24L211.981 176.429C212.387 177.388 212.876 178.759 212.876 178.759C212.876 178.759 213.446 177.141 213.744 176.346L216.214 170.014H219.85L213.826 184.105C212.36 187.477 209.81 187.751 208.127 187.751V184.406Z" fill="#111827"/>
<path fill-rule="evenodd" clip-rule="evenodd" d="M231.084 183.72H234.72V165.681H231.084V183.72ZM222.536 173.001H220.419V170.04H222.536V169.136C222.536 165.956 224.272 164.585 226.579 164.585C227.8 164.585 229.157 164.941 230.107 165.435L229.075 168.148C228.777 168.012 228.18 167.738 227.556 167.738C226.796 167.738 226.172 168.121 226.172 169.547V170.04H229.564V173.001H226.172V183.721H222.536V173.001Z" fill="#111827"/>
<path fill-rule="evenodd" clip-rule="evenodd" d="M238.302 184.406C239.984 184.406 240.608 183.831 241.097 182.762L241.395 182.158L235.724 170.014H239.414L242.155 176.429C242.562 177.388 243.051 178.759 243.051 178.759C243.051 178.759 243.62 177.141 243.919 176.346L246.388 170.014H250.024L244 184.105C242.535 187.477 239.984 187.751 238.302 187.751V184.406Z" fill="#111827"/>
<path fill-rule="evenodd" clip-rule="evenodd" d="M259.359 175.689C259.088 173.962 257.731 172.81 256.075 172.81C254.501 172.81 253.144 173.962 252.792 175.689H259.359ZM249.155 176.867C249.155 172.92 252.195 169.739 256.184 169.739C259.874 169.739 262.778 172.92 262.778 176.812C262.778 177.47 262.696 178.128 262.696 178.128H252.846C253.28 180.02 254.827 180.925 256.618 180.925C257.92 180.925 259.277 180.541 260.281 179.855L261.638 182.487C260.118 183.502 258.355 183.995 256.591 183.995C252.629 183.995 249.155 181.391 249.155 176.867Z" fill="#111827"/>
<path fill-rule="evenodd" clip-rule="evenodd" d="M264.08 170.013H267.662V172.645C268.042 171.521 269.426 169.739 272.411 169.739V173.742C269.263 173.742 267.716 175.194 267.716 178.457V183.72H264.08V170.013Z" fill="#111827"/>
</g>
</g>
<rect x="326" width="90" height="36" rx="18" fill="#3B82F6"/>
<path d="M365.657 20.9502H369.214C371.084 20.9502 372.08 19.9745 372.08 18.6492C372.08 17.4174 371.198 16.6734 370.251 16.6287V16.5474C371.117 16.3522 371.755 15.7384 371.755 14.7586C371.755 13.5105 370.828 12.6243 368.99 12.6243H365.657V20.9502ZM367.417 19.511V17.2995H368.893C369.738 17.2995 370.263 17.7873 370.263 18.4744C370.263 19.1004 369.836 19.511 368.852 19.511H367.417ZM367.417 16.1083V14.0472H368.755C369.535 14.0472 369.978 14.4496 369.978 15.0513C369.978 15.7099 369.442 16.1083 368.722 16.1083H367.417ZM374.974 21.0681C375.896 21.0681 376.494 20.6656 376.799 20.0843H376.848V20.9502H378.49V16.7384C378.49 15.2505 377.23 14.6244 375.84 14.6244C374.343 14.6244 373.36 15.3399 373.12 16.4783L374.722 16.6084C374.839 16.1937 375.209 15.8888 375.831 15.8888C376.421 15.8888 376.758 16.1855 376.758 16.6978V16.7222C376.758 17.1247 376.331 17.1775 375.246 17.2832C374.01 17.397 372.9 17.8117 372.9 19.2061C372.9 20.442 373.782 21.0681 374.974 21.0681ZM375.47 19.8729C374.937 19.8729 374.555 19.6249 374.555 19.1492C374.555 18.6614 374.957 18.4215 375.567 18.3361C375.945 18.2833 376.563 18.1939 376.771 18.0556V18.7183C376.771 19.3728 376.23 19.8729 375.47 19.8729ZM381.566 17.3401C381.57 16.5352 382.049 16.0636 382.749 16.0636C383.444 16.0636 383.863 16.5189 383.859 17.2832V20.9502H385.59V16.9742C385.59 15.5188 384.737 14.6244 383.436 14.6244C382.509 14.6244 381.838 15.0798 381.558 15.8075H381.484V14.7057H379.834V20.9502H381.566V17.3401ZM386.955 20.9502H388.687V18.9663L389.155 18.4337L390.858 20.9502H392.887L390.452 17.4092L392.769 14.7057H390.781L388.781 17.0759H388.687V12.6243H386.955V20.9502Z" fill="white"/>
<rect x="330" y="4" width="28" height="28" rx="14" fill="white" fill-opacity="0.5"/>
<path d="M341.333 19.3333V21.3333M344 19.3333V21.3333M346.667 19.3333V21.3333M338 24H350M338 16.6667H350M338 14.6667L344 12L350 14.6667M338.667 16.6667H349.333V24H338.667V16.6667Z" stroke="white" stroke-width="1.34395" stroke-linecap="round" stroke-linejoin="round"/>
<path d="M202 139L202.071 128.937C202.147 118.039 210.936 109.29 221.834 109.264L263.232 109.165C274.185 109.139 282.996 100.306 282.996 89.3519V86.7589" stroke="#D1D5DB" stroke-width="2.06219" stroke-dasharray="4.12 4.12"/>
<path d="M202.21 138.993V138.993C202.639 130.281 195.671 122.922 186.945 122.873L79.3211 122.269C68.1534 122.206 59.1153 113.008 59.2484 101.842L59.4293 86.6548" stroke="#D1D5DB" stroke-width="2.06219" stroke-dasharray="4.12 4.12"/>
<path d="M202 139V139C202.221 129.898 209.68 122.711 218.787 122.827L352.139 124.514C363.119 124.653 372.075 115.912 372.202 104.933L372.993 36.6021" stroke="#D1D5DB" stroke-width="2.06219" stroke-dasharray="4.12 4.12"/>
<path d="M202 139L201.538 127.832C201.095 117.133 192.311 108.601 181.608 108.473L166.182 108.288C155.067 108.155 146.108 98.9835 146.237 87.8694L146.833 36.4831" stroke="#D1D5DB" stroke-width="2.06219" stroke-dasharray="4.12 4.12"/>
<rect x="92" width="116" height="36" rx="18" fill="#0D9488"/>
<path d="M135.24 15.0686H136.927C136.903 13.5847 135.683 12.5602 133.83 12.5602C132.004 12.5602 130.667 13.5685 130.675 15.0808C130.671 16.3085 131.537 17.0118 132.943 17.3493L133.85 17.5769C134.757 17.7965 135.261 18.0567 135.265 18.6177C135.261 19.2275 134.683 19.6422 133.789 19.6422C132.874 19.6422 132.216 19.2194 132.159 18.3859H130.455C130.5 20.1869 131.789 21.1179 133.809 21.1179C135.842 21.1179 137.037 20.1463 137.041 18.6217C137.037 17.2354 135.992 16.4996 134.545 16.1744L133.797 15.9955C133.073 15.8288 132.468 15.5605 132.48 14.9629C132.48 14.4263 132.956 14.0319 133.817 14.0319C134.659 14.0319 135.175 14.4141 135.24 15.0686ZM139.925 17.3899C139.929 16.585 140.421 16.1134 141.128 16.1134C141.831 16.1134 142.246 16.5647 142.242 17.333V21H143.974V17.024C143.978 15.5605 143.116 14.6742 141.815 14.6742C140.868 14.6742 140.234 15.1214 139.949 15.8573H139.876V12.6741H138.193V21H139.925V17.3899ZM148.158 21.122C150.053 21.122 151.232 19.8251 151.232 17.9022C151.232 15.967 150.053 14.6742 148.158 14.6742C146.264 14.6742 145.085 15.967 145.085 17.9022C145.085 19.8251 146.264 21.122 148.158 21.122ZM148.166 19.7804C147.292 19.7804 146.845 18.9795 146.845 17.89C146.845 16.8004 147.292 15.9955 148.166 15.9955C149.024 15.9955 149.471 16.8004 149.471 17.89C149.471 18.9795 149.024 19.7804 148.166 19.7804ZM152.358 23.3417H154.09V19.9999H154.142C154.382 20.5203 154.907 21.1016 155.915 21.1016C157.338 21.1016 158.448 19.9755 158.448 17.8859C158.448 15.7394 157.289 14.6742 155.919 14.6742C154.874 14.6742 154.374 15.2962 154.142 15.8044H154.065V14.7555H152.358V23.3417ZM154.053 17.8778C154.053 16.7639 154.525 16.0524 155.366 16.0524C156.224 16.0524 156.679 16.7964 156.679 17.8778C156.679 18.9673 156.216 19.7235 155.366 19.7235C154.533 19.7235 154.053 18.9917 154.053 17.8778ZM159.602 23.3417H161.334V19.9999H161.387C161.627 20.5203 162.151 21.1016 163.159 21.1016C164.582 21.1016 165.692 19.9755 165.692 17.8859C165.692 15.7394 164.534 14.6742 163.163 14.6742C162.119 14.6742 161.619 15.2962 161.387 15.8044H161.31V14.7555H159.602V23.3417ZM161.297 17.8778C161.297 16.7639 161.769 16.0524 162.611 16.0524C163.468 16.0524 163.924 16.7964 163.924 17.8778C163.924 18.9673 163.46 19.7235 162.611 19.7235C161.777 19.7235 161.297 18.9917 161.297 17.8778ZM166.847 21H168.579V14.7555H166.847V21ZM167.717 13.9506C168.233 13.9506 168.656 13.5563 168.656 13.0725C168.656 12.5928 168.233 12.1984 167.717 12.1984C167.204 12.1984 166.782 12.5928 166.782 13.0725C166.782 13.5563 167.204 13.9506 167.717 13.9506ZM171.698 17.3899C171.702 16.585 172.182 16.1134 172.881 16.1134C173.576 16.1134 173.995 16.5687 173.991 17.333V21H175.723V17.024C175.723 15.5686 174.869 14.6742 173.568 14.6742C172.641 14.6742 171.97 15.1296 171.69 15.8573H171.616V14.7555H169.966V21H171.698V17.3899ZM179.901 23.4718C181.685 23.4718 182.954 22.6587 182.954 21.061V14.7555H181.234V15.8044H181.169C180.937 15.2962 180.429 14.6742 179.384 14.6742C178.014 14.6742 176.856 15.7394 176.856 17.8656C176.856 19.943 177.982 20.9106 179.388 20.9106C180.385 20.9106 180.941 20.4105 181.169 19.8942H181.242V21.0366C181.242 21.8944 180.693 22.2277 179.941 22.2277C179.177 22.2277 178.791 21.8944 178.649 21.5163L177.047 21.7318C177.254 22.7156 178.218 23.4718 179.901 23.4718ZM179.937 19.6096C179.088 19.6096 178.624 18.9348 178.624 17.8574C178.624 16.7964 179.08 16.0524 179.937 16.0524C180.779 16.0524 181.25 16.7639 181.25 17.8574C181.25 18.9592 180.771 19.6096 179.937 19.6096Z" fill="white"/>
<rect x="96" y="4" width="28" height="28" rx="14" fill="white" fill-opacity="0.5"/>
<path d="M112.666 17.3333V14.6667C112.666 13.1939 111.472 12 110 12C108.527 12 107.333 13.1939 107.333 14.6667V17.3333M105.333 16H114.666L115.333 24H104.666L105.333 16Z" stroke="white" stroke-width="1.34403" stroke-linecap="round" stroke-linejoin="round"/>
<defs>
<filter id="filter0_dd" x="107" y="137" width="188" height="80" filterUnits="userSpaceOnUse" color-interpolation-filters="sRGB">
<feFlood flood-opacity="0" result="BackgroundImageFix"/>
<feColorMatrix in="SourceAlpha" type="matrix" values="0 0 0 0 0 0 0 0 0 0 0 0 0 0 0 0 0 0 127 0" result="hardAlpha"/>
<feOffset dy="1"/>
<feGaussianBlur stdDeviation="1"/>
<feColorMatrix type="matrix" values="0 0 0 0 0 0 0 0 0 0 0 0 0 0 0 0 0 0 0.06 0"/>
<feBlend mode="normal" in2="BackgroundImageFix" result="effect1_dropShadow"/>
<feColorMatrix in="SourceAlpha" type="matrix" values="0 0 0 0 0 0 0 0 0 0 0 0 0 0 0 0 0 0 127 0" result="hardAlpha"/>
<feOffset dy="1"/>
<feGaussianBlur stdDeviation="1.5"/>
<feColorMatrix type="matrix" values="0 0 0 0 0 0 0 0 0 0 0 0 0 0 0 0 0 0 0.1 0"/>
<feBlend mode="normal" in2="effect1_dropShadow" result="effect2_dropShadow"/>
<feBlend mode="normal" in="SourceGraphic" in2="effect2_dropShadow" result="shape"/>
</filter>
<clipPath id="clip0">
<rect width="152" height="40" fill="white" transform="translate(125 156)"/>
</clipPath>
</defs>
</svg>
