<svg width="153" height="40" viewBox="0 0 153 40" fill="none" xmlns="http://www.w3.org/2000/svg">
<g clip-path="url(#clip0)">
<path d="M27.0636 4.67732C31.4811 7.89288 34.0036 13.1358 34.0161 19.2303C34.022 22.1303 33.5355 24.5 32.5685 26.2128C31.5105 28.0865 29.8699 29.1557 27.9269 29.1557C26.7107 29.1557 25.6518 28.7157 24.8762 27.986C23.9726 28.7707 22.8837 29.175 21.7268 29.175C19.8311 29.175 18.3773 28.2478 17.6886 26.6169C17.1505 25.3424 17.118 23.7394 17.4972 21.9253L17.5182 21.8261C17.7831 20.6013 17.7501 19.6323 17.4975 18.9568C17.3218 18.4867 17.061 18.2109 16.7514 18.0888C16.0453 17.8102 15.0254 18.2735 14.3513 19.5156C13.2939 21.4639 13.3202 24.7806 14.6759 27.3966C16.357 30.6402 19.7778 32.5944 25.0767 32.5944C30.1862 32.5944 33.8473 30.1601 35.6636 25.8751C37.4799 21.59 37.2908 15.7807 35.0121 9.84175L34.9424 9.66174L38.1367 8.40421C43.7829 22.8578 38.1958 36.0389 25.0767 36.0389C18.5334 36.0389 13.9217 33.4044 11.6321 28.9863C9.7593 25.3726 9.72331 20.8432 11.3383 17.8676C12.7921 15.1892 15.5764 13.9242 18.0065 14.883C20.5356 15.8809 21.6487 18.8002 20.8947 22.4463L20.8713 22.557C20.607 23.7789 20.6208 24.7353 20.8477 25.2727C20.9885 25.606 21.1837 25.7306 21.7268 25.7306C22.1751 25.7306 22.5685 25.5352 22.9388 25.0495C23.2248 24.6743 23.4704 24.1583 23.6612 23.4968C23.6778 23.4259 23.6961 23.3549 23.7159 23.2837L23.7447 23.1833C23.8919 22.5847 23.998 21.881 24.0543 21.0692C24.3604 16.6539 22.5153 13.4396 19.3669 12.0083C16.3748 10.6481 12.7258 11.1775 10.1009 13.4849C7.61552 15.6696 6.24195 19.2055 6.43906 23.031C6.65165 27.1569 8.63705 31.1995 12.2739 34.3709L12.3846 34.4667L10.1534 37.0835C5.73565 33.2874 3.2761 28.3252 3.01249 23.2089C2.76281 18.3631 4.53617 13.7981 7.84052 10.8935C11.4814 7.69301 16.5685 6.95502 20.7823 8.87063C25.2566 10.9046 27.8814 15.4773 27.4772 21.3083C27.3993 22.4307 27.2369 23.4377 26.9907 24.3287C26.7906 25.2049 27.2053 25.7113 27.9269 25.7113C28.5661 25.7113 29.1065 25.3591 29.5835 24.5143C30.2204 23.3863 30.5897 21.5871 30.5849 19.2374C30.5637 8.88815 22.1894 2.68903 11.2804 5.54647L10.949 5.63584L10.0349 2.31587C16.5207 0.516298 22.5668 1.40403 27.0636 4.67732Z" fill="#10B981"/>
<path fill-rule="evenodd" clip-rule="evenodd" d="M47.3198 14.0127H50.8747L52.9371 21.3322C53.2087 22.2921 53.3715 23.498 53.3715 23.498C53.3715 23.498 53.4799 22.2921 53.6969 21.3599L55.3523 14.0127H58.934L60.5894 21.3599C60.8067 22.2921 60.9422 23.498 60.9422 23.498C60.9422 23.498 61.078 22.2921 61.3492 21.3322L63.4387 14.0127H66.9662L62.6247 27.7476H59.3413L57.5234 20.3453C57.306 19.4135 57.1706 18.262 57.1706 18.262C57.1706 18.262 57.0077 19.4135 56.7904 20.3453L54.9721 27.7476H51.6616L47.3198 14.0127Z" fill="#111827"/>
<path fill-rule="evenodd" clip-rule="evenodd" d="M76.9246 20.8675C76.9246 18.7291 75.5679 17.1388 73.6951 17.1388C71.7417 17.1388 70.3308 18.7291 70.3308 20.8675C70.3308 23.0332 71.7417 24.5958 73.6951 24.5958C75.5679 24.5958 76.9246 23.0609 76.9246 20.8675ZM66.6401 20.8672C66.6401 16.9196 69.0282 13.7393 72.7728 13.7393C74.3469 13.7393 76.0291 14.37 77.0062 15.6857V14.0136H80.5608V27.7208H77.0062V26.076C76.0562 27.392 74.3469 27.9951 72.7728 27.9951C69.0282 27.9951 66.6401 24.8148 66.6401 20.8672Z" fill="#111827"/>
<path fill-rule="evenodd" clip-rule="evenodd" d="M83.6271 28.4064C85.3095 28.4064 85.9336 27.8307 86.4222 26.7617L86.7205 26.1583L81.0493 14.0137H84.7397L87.4806 20.4287C87.8873 21.3883 88.3759 22.759 88.3759 22.759C88.3759 22.759 88.9457 21.1413 89.2444 20.3463L91.7134 14.0137H95.3496L89.3256 28.1047C87.8602 31.4772 85.3095 31.7509 83.6271 31.7509V28.4064Z" fill="#111827"/>
<path fill-rule="evenodd" clip-rule="evenodd" d="M106.584 27.7204H110.22V9.68142H106.584V27.7204ZM98.0361 17.0012H95.9189V14.0405H98.0361V13.1357C98.0361 9.95568 99.7725 8.58496 102.079 8.58496C103.3 8.58496 104.657 8.9411 105.607 9.43501L104.575 12.1485C104.277 12.0116 103.68 11.7376 103.056 11.7376C102.296 11.7376 101.672 12.1214 101.672 13.5469V14.0405H105.064V17.0012H101.672V27.7206H98.0361V17.0012Z" fill="#111827"/>
<path fill-rule="evenodd" clip-rule="evenodd" d="M113.802 28.4064C115.484 28.4064 116.108 27.8307 116.597 26.7617L116.895 26.1583L111.224 14.0137H114.914L117.655 20.4287C118.062 21.3883 118.551 22.759 118.551 22.759C118.551 22.759 119.121 21.1413 119.419 20.3463L121.888 14.0137H125.524L119.5 28.1047C118.035 31.4772 115.484 31.7509 113.802 31.7509V28.4064Z" fill="#111827"/>
<path fill-rule="evenodd" clip-rule="evenodd" d="M134.859 19.6887C134.588 17.9615 133.231 16.8101 131.575 16.8101C130.001 16.8101 128.644 17.9615 128.292 19.6887H134.859ZM124.655 20.8672C124.655 16.9196 127.695 13.7393 131.684 13.7393C135.374 13.7393 138.278 16.9196 138.278 20.8121C138.278 21.4703 138.196 22.1281 138.196 22.1281H128.346C128.78 24.0198 130.327 24.9246 132.118 24.9246C133.42 24.9246 134.777 24.5408 135.781 23.8553L137.138 26.4872C135.618 27.5015 133.855 27.9948 132.091 27.9948C128.129 27.9948 124.655 25.3905 124.655 20.8672Z" fill="#111827"/>
<path fill-rule="evenodd" clip-rule="evenodd" d="M139.58 14.0133H143.162V16.6449C143.542 15.5209 144.926 13.7393 147.911 13.7393V17.7416C144.763 17.7416 143.216 19.1945 143.216 22.4572V27.7205H139.58V14.0133Z" fill="#111827"/>
</g>
<defs>
<clipPath id="clip0">
<rect width="152" height="40" fill="white" transform="translate(0.5)"/>
</clipPath>
</defs>
</svg>
