<svg xmlns="http://www.w3.org/2000/svg" width="1300" height="500"
     style="width:100%;height:100%;transform:translate3d(0,0,0);fill: #6b7280">
  <defs>
    <clipPath id="a">
      <path d="M0 0h1300v500H0z"/>
    </clipPath>
    <filter id="b">
      <feColorMatrix color-interpolation-filters="sRGB" values="0 0 0 0 0 0 0 0 0 0 0 0 0 0 0 0 0 0 1 0"/>
    </filter>
  </defs>
  <g clip-path="url(#a)">
    <path stroke-linecap="round" stroke-dasharray="6 6" stroke="#000" stroke-width="3"
          d="M-588.48999023 155.32400513c68.11096191.27999878 135.98498535 2.48899841 204.12799072 2.48899841 56.96499634 0 119.16101074-.17399597 149.9019928-19.28300476 11.32400512-7.03900147 14.91900634-20.7669983 6.76100158-28.68799591-9.6579895-9.37700653-45.29598999-14.52600098-68.28598022-19.40900421-54.36102295-11.54799652-120.07302857-16.0130005-172.32202149-29.03499985-20.71600341-5.1629982-38.08700561-14.23699951-41.58200073-23.13499832-3.54299927-9.02099991 11.67599487-22.92900086 38.83099365-25.77400017 66.86801148-7.00500011 135.82800293 8.0869999 200.88201905 15.72599983 21.86299133 2.56699944 41.42999267 4.43899918 63.87199402 5.90000153 93.06999969 6.05799866 185.60000038 17.97499847 279.88100433 21.79699707 91.43900299 3.70600128 184.04198456 5.39300156 276.08098602 4.51600265 58.26300049-.5550003 103.9420166 4.03900147 158.91201782 0 32.85998536-5.70400238 49.55999756-11.9850006 58.27001954-26.31299972 21.64996337-35.61200166-45.82000733-49.3740015-45.82000733-49.3740015-38.33001709-9.89000035-49.41003418-9.71000004-76.40002441-13.70600033-18.38000489-2.72100067-62.36398316-8.98899842-71.4710083-36.95599747-9.10699463-27.96700287 34.35900879-45.6930008 66.7710266-57.9790039 74.4499817-28.2179947 51.60998536-21.21300507 81.10000611-33.91199494"
          fill="none" transform="translate(658.68395996 249.99899292)" style="display:block"/>
    <g filter="url(#b)" style="display:block" transform="rotate(4.99996833 81.2030115 13560.7786214) scale(1.33)">
      <path fill="#D1D5DB"
            d="M11.32999992 19.25099993c0-.00300026 0-.00200033.01000023-.00300026.01999855-.03499985.0699997-.0369997.09999848-.06500006.01000023-.00699997.02000045-.00899982.02000045-.01300001.04000092-.02600002.05999947-.07299995.10000039-.092L56.86999893 1.283.25 17.2709999l6.54999924 7.85999967 4.53000068-5.87999964z"/>
      <path fill="#D1D5DB"
            d="M12.69999886 23.4640007V23.47700072l.62000083 8.74299955L62.46999931.25000095 12.33999825 19.94000053l.3600006 3.52400017zM20.42000008 41.40299988 62.54999924 1.49300003l-48.8899994 31.8050003 6.76000024 8.10499955z"/>
    </g>
  </g>
</svg>
